<svg width="32" height="32" viewBox="0 0 32 32" fill="none" xmlns="http://www.w3.org/2000/svg">
<rect width="32" height="32" fill="#123AD7"/>
<path d="M23.7127 18.3669H23.0531V14.1213C23.0531 13.8913 22.7077 13.6457 22.4794 13.6209C21.8232 13.5492 21.6014 14.1964 21.6517 14.7396L22.6467 14.7751L22.7242 15.3167H21.6525V18.3669H20.993V15.3167H20.3327V14.7388H20.993C20.9328 13.7339 21.4299 12.9408 22.5206 13.0035C23.0614 13.0348 23.7135 13.4577 23.7135 14.0381V18.3661L23.7127 18.3669Z" fill="white"/>
<path d="M15.8809 16.6357H13.1605C13.1308 17.9993 15.0442 18.4024 15.3517 16.9597L15.9642 17.0487C15.6724 19.0174 12.7425 18.8863 12.5108 16.916C12.172 14.0422 16.05 13.785 15.8818 16.6366L15.8809 16.6357ZM15.2214 16.0587C15.0508 14.8954 13.4663 14.9952 13.1605 16.0587H15.2214Z" fill="white"/>
<path d="M25.6698 14.677C28.7192 14.1609 28.781 18.7824 25.8239 18.4403C23.777 18.2029 23.8198 14.9902 25.6698 14.677ZM26.9822 15.5921C26.3713 14.9804 25.1867 15.2738 24.9847 16.1353C24.4966 18.2161 27.3919 18.395 27.3466 16.5121C27.34 16.2367 27.1751 15.7858 26.9822 15.5921Z" fill="white"/>
<path d="M9.53317 15.3167L8.87201 15.2697V14.7396L9.53317 14.7405V13.6679H10.1927V14.7405H12.0879V15.3175H10.1919V17.2548C10.1919 17.7272 11.0311 18.1048 11.3872 17.6258C11.6626 17.2557 11.2858 16.8245 12.1712 16.9663C12.2924 17.9828 11.5669 18.6027 10.5686 18.4453C10.1358 18.3768 9.53317 17.7742 9.53317 17.3381V15.3167Z" fill="white"/>
<path d="M8.5439 18.3669H7.88439V15.6877C7.88439 15.3274 7.168 15.184 6.87204 15.2508C6.59834 15.3126 6.15317 15.8493 6.15317 16.0999V18.3669H5.49366V14.7396H6.154L6.19439 15.0686C6.68243 14.5459 7.75826 14.4585 8.24795 14.9944C8.31637 15.0686 8.5439 15.4569 8.5439 15.5228V18.3669Z" fill="white"/>
<path d="M18.519 13.0909H17.8595V18.3669H18.519V13.0909Z" fill="white"/>
<path d="M17.1175 13.0909V18.3669L16.5355 18.3315L16.458 13.297L16.5932 13.1024L17.1175 13.0909Z" fill="white"/>
<path d="M4.75171 14.7396H4.0922V18.3669H4.75171V14.7396Z" fill="white"/>
<path d="M19.9205 14.7396H19.261V18.3669H19.9205V14.7396Z" fill="white"/>
<path d="M4.39144 13.2772C5.06332 13.2046 5.04106 14.1865 4.46481 14.2129C3.87373 14.2401 3.84322 13.3365 4.39144 13.2772Z" fill="white"/>
<path d="M19.5627 13.273C20.0276 13.2302 20.2947 14.0653 19.7111 14.1634C18.9691 14.2879 19.0458 13.3209 19.5627 13.273Z" fill="white"/>
</svg>
